<?xml version="1.0" encoding="utf-8"?>
<!-- Generator: Adobe Illustrator 23.1.1, SVG Export Plug-In . SVG Version: 6.00 Build 0)  -->
<svg version="1.1" id="Layer_1" xmlns="http://www.w3.org/2000/svg" xmlns:xlink="http://www.w3.org/1999/xlink" x="0px" y="0px"
	 viewBox="0 0 17.2 17.2" style="enable-background:new 0 0 17.2 17.2;" xml:space="preserve">
<path d="M17.2,3.3L17.2,3.3 M11.9,1.6c-2,0-3.5,1.6-3.5,3.5c0,0.3,0,0.5,0.1,0.8C5.6,5.8,3,4.5,1.2,2.3C0.3,3.9,0.7,6,2.3,7
	C1.7,7,1.2,6.8,0.7,6.6c0,0,0,0,0,0c0,1.7,1.2,3.1,2.8,3.5c-0.3,0.1-0.6,0.1-0.9,0.1c-0.2,0-0.4,0-0.7-0.1c0.5,1.4,1.8,2.4,3.3,2.5
	c-1.3,1-2.8,1.5-4.4,1.5c-0.3,0-0.6,0-0.8,0c4.7,3,10.9,1.6,13.9-3c1-1.6,1.6-3.5,1.6-5.4c0-0.2,0-0.3,0-0.5
	c0.7-0.5,1.3-1.1,1.8-1.8c-0.6,0.3-1.3,0.5-2,0.6c0.7-0.4,1.3-1.1,1.6-2c-0.7,0.4-1.5,0.7-2.2,0.9C13.8,2,12.9,1.6,11.9,1.6"/>
</svg>
