<?xml version="1.0" encoding="UTF-8" ?>
<svg xmlns="http://www.w3.org/2000/svg" viewBox="0 0 17.218 14" class="twitter-icon"><path fill="rgb(76, 159, 236)" stroke="none" d="M198.809,8574.58h0m-5.3-1.66a3.541,3.541,0,0,0-3.533,3.54,3.439,3.439,0,0,0,.092.8,10,10,0,0,1-7.282-3.69,3.541,3.541,0,0,0,1.094,4.72,3.584,3.584,0,0,1-1.6-.44,0.268,0.268,0,0,0,0,.04,3.539,3.539,0,0,0,2.834,3.47,3.56,3.56,0,0,1-.93.12,3.639,3.639,0,0,1-.665-0.06,3.526,3.526,0,0,0,3.3,2.45,7.079,7.079,0,0,1-4.388,1.52,7.786,7.786,0,0,1-.842-0.05,10.043,10.043,0,0,0,15.466-8.47c0-.15,0-0.31-0.01-0.46a7.2,7.2,0,0,0,1.762-1.83,7.252,7.252,0,0,1-2.029.56,3.541,3.541,0,0,0,1.553-1.96,6.975,6.975,0,0,1-2.243.86,3.517,3.517,0,0,0-2.578-1.12" transform="translate(-181.594 -8572.94)" class="hover-fill-trans"></path></svg>
