<?xml version="1.0" encoding="utf-8"?>
<!-- Generator: Adobe Illustrator 23.1.1, SVG Export Plug-In . SVG Version: 6.00 Build 0)  -->
<svg version="1.1" id="Layer_1" xmlns="http://www.w3.org/2000/svg" xmlns:xlink="http://www.w3.org/1999/xlink" x="0px" y="0px"
	 viewBox="0 0 24 23.9" style="enable-background:new 0 0 24 23.9;" xml:space="preserve">
<path d="M23.7,7.1c-0.1-0.9-0.4-1.7-1-2.4c-0.6-0.6-1.5-1-2.4-1C17,3.4,12,3.4,12,3.4h0c0,0-5,0-8.4,0.2c-0.9,0-1.8,0.4-2.4,1
	c-0.5,0.7-0.8,1.5-1,2.4C0.1,8.4,0,9.7,0,11v1.8c0,1.3,0.1,2.6,0.2,3.9c0.1,0.9,0.4,1.7,1,2.4c0.7,0.7,1.7,1,2.6,1
	c1.9,0.2,8.2,0.2,8.2,0.2s5,0,8.4-0.2c0.9,0,1.8-0.4,2.4-1c0.5-0.7,0.8-1.5,1-2.4c0.1-1.3,0.2-2.6,0.2-3.9V11
	C24,9.7,23.9,8.4,23.7,7.1z M9.5,15.1V8.3l6.5,3.4L9.5,15.1z"/>
</svg>
