<?xml version="1.0" encoding="UTF-8" ?>
<svg xmlns="http://www.w3.org/2000/svg" viewBox="0 0 24 17" class="youtube-icon"><path fill="rgb(234, 51, 35)" d="M149.747,8574.67a5.229,5.229,0,0,0-.953-2.4,3.411,3.411,0,0,0-2.4-1.03c-3.354-.24-8.387-0.24-8.387-0.24H138s-5.031,0-8.387.24a3.414,3.414,0,0,0-2.4,1.03,5.247,5.247,0,0,0-.952,2.4,36.652,36.652,0,0,0-.24,3.91v1.84a36.652,36.652,0,0,0,.24,3.91,5.247,5.247,0,0,0,.952,2.4,4.02,4.02,0,0,0,2.644,1.04c1.917,0.18,8.151.24,8.151,0.24s5.038-.01,8.392-0.25a3.411,3.411,0,0,0,2.4-1.03,5.229,5.229,0,0,0,.953-2.4,36.652,36.652,0,0,0,.24-3.91v-1.84A36.652,36.652,0,0,0,149.747,8574.67Zm-14.222,7.97v-6.79l6.478,3.41Z" transform="translate(-126 -8571)" class="hover-fill-trans"></path></svg>